<svg width="1200" height="630" viewBox="0 0 1200 630" fill="none" xmlns="http://www.w3.org/2000/svg">
  <!-- Background -->
  <rect width="1200" height="630" fill="#f8fafc"/>
  
  <!-- Header -->
  <rect width="1200" height="80" fill="#2563eb"/>
  
  <!-- Logo -->
  <g transform="translate(50, 20)">
    <!-- House icon -->
    <rect x="0" y="20" width="40" height="30" fill="#ffffff" stroke="#e5e7eb" stroke-width="2"/>
    <path d="M-5 20 L20 0 L45 20 Z" fill="#dc2626" stroke="#b91c1c" stroke-width="2"/>
    <rect x="15" y="35" width="10" height="15" fill="#374151"/>
    <rect x="25" y="28" width="8" height="8" fill="#fbbf24"/>
  </g>
  
  <!-- Title -->
  <text x="120" y="50" font-family="Arial, sans-serif" font-size="32" font-weight="bold" fill="#ffffff">
    MilkatPost
  </text>
  
  <!-- Subtitle -->
  <text x="120" y="70" font-family="Arial, sans-serif" font-size="16" fill="#dbeafe">
    Premium Property Listings & Real Estate Services
  </text>
  
  <!-- Main Content -->
  <g transform="translate(100, 150)">
    <!-- Large House Illustration -->
    <g transform="translate(400, 100)">
      <!-- House base -->
      <rect x="0" y="100" width="200" height="150" fill="#2563eb" stroke="#1e40af" stroke-width="3"/>
      
      <!-- Roof -->
      <path d="M-20 100 L100 20 L220 100 Z" fill="#dc2626" stroke="#b91c1c" stroke-width="3"/>
      
      <!-- Windows -->
      <rect x="30" y="130" width="40" height="40" fill="#fbbf24" stroke="#f59e0b" stroke-width="2"/>
      <rect x="130" y="130" width="40" height="40" fill="#fbbf24" stroke="#f59e0b" stroke-width="2"/>
      
      <!-- Door -->
      <rect x="85" y="200" width="30" height="50" fill="#374151" stroke="#1f2937" stroke-width="2"/>
      
      <!-- Chimney -->
      <rect x="160" y="40" width="20" height="50" fill="#6b7280" stroke="#4b5563" stroke-width="2"/>
      
      <!-- Sun -->
      <circle cx="300" cy="50" r="30" fill="#fbbf24" stroke="#f59e0b" stroke-width="3"/>
      
      <!-- Trees -->
      <circle cx="50" cy="200" r="25" fill="#16a34a"/>
      <rect x="45" y="225" width="10" height="25" fill="#92400e"/>
      
      <circle cx="350" cy="180" r="25" fill="#16a34a"/>
      <rect x="345" y="205" width="10" height="25" fill="#92400e"/>
    </g>
    
    <!-- Features -->
    <g transform="translate(50, 350)">
      <text x="0" y="0" font-family="Arial, sans-serif" font-size="24" font-weight="bold" fill="#1f2937">
        Find Your Dream Property
      </text>
      
      <text x="0" y="30" font-family="Arial, sans-serif" font-size="18" fill="#6b7280">
        • Premium Property Listings
      </text>
      
      <text x="0" y="55" font-family="Arial, sans-serif" font-size="18" fill="#6b7280">
        • Trusted Brokers & Developers
      </text>
      
      <text x="0" y="80" font-family="Arial, sans-serif" font-size="18" fill="#6b7280">
        • Comprehensive Real Estate Services
      </text>
      
      <text x="0" y="105" font-family="Arial, sans-serif" font-size="18" fill="#6b7280">
        • Buy, Sell, Rent with Confidence
      </text>
    </g>
  </g>
  
  <!-- Footer -->
  <rect y="580" width="1200" height="50" fill="#1e40af"/>
  <text x="600" y="605" font-family="Arial, sans-serif" font-size="16" fill="#ffffff" text-anchor="middle">
    milkatpost.com
  </text>
</svg>
